<?xml version="1.0" encoding="utf-8"?>
<!-- Generator: Adobe Illustrator 20.1.0, SVG Export Plug-In . SVG Version: 6.00 Build 0)  -->
<svg version="1.1" xmlns="http://www.w3.org/2000/svg" xmlns:xlink="http://www.w3.org/1999/xlink" x="0px" y="0px"
	 viewBox="0 0 64 64" enable-background="new 0 0 64 64" xml:space="preserve">
<g id="harga_termurah">
</g>
<g id="harga_termurah_copy">
	<g>
		<path fill-rule="evenodd" clip-rule="evenodd" fill="none" stroke="#288EEA" stroke-width="2" stroke-miterlimit="10" d="
			M6.751,25.846c0-13.366,10.837-24.203,24.203-24.203c13.368,0,24.203,10.836,24.203,24.203"/>
		<g>
			<path fill-rule="evenodd" clip-rule="evenodd" fill="#D4E8FB" d="M7.325,36.183c-1.019,0-1.847-0.828-1.847-1.847v-7.444
				c0-1.018,0.828-1.847,1.847-1.847s1.847,0.829,1.847,1.847v7.444C9.172,35.354,8.343,36.183,7.325,36.183z"/>
			<path fill="#298EEA" d="M7.325,25.545c0.743,0,1.347,0.604,1.347,1.347v7.444c0,0.743-0.604,1.347-1.347,1.347
				c-0.742,0-1.346-0.604-1.346-1.347v-7.444C5.978,26.149,6.582,25.545,7.325,25.545 M7.325,24.545
				c-1.296,0-2.346,1.051-2.346,2.347v7.444c0,1.296,1.05,2.347,2.346,2.347c1.296,0,2.347-1.05,2.347-2.347v-7.444
				C9.672,25.596,8.621,24.545,7.325,24.545L7.325,24.545z"/>
		</g>
		<g>
			<path fill-rule="evenodd" clip-rule="evenodd" fill="#D4E8FB" d="M54.575,36.183c-1.019,0-1.847-0.828-1.847-1.847v-7.444
				c0-1.018,0.828-1.847,1.847-1.847s1.847,0.829,1.847,1.847v7.444C56.422,35.354,55.593,36.183,54.575,36.183z"/>
			<path fill="#298EEA" d="M54.575,25.545c0.743,0,1.347,0.604,1.347,1.347v7.444c0,0.743-0.604,1.347-1.347,1.347
				c-0.743,0-1.347-0.604-1.347-1.347v-7.444C53.228,26.149,53.832,25.545,54.575,25.545 M54.575,24.545
				c-1.296,0-2.347,1.051-2.347,2.347v7.444c0,1.296,1.051,2.347,2.347,2.347s2.347-1.05,2.347-2.347v-7.444
				C56.922,25.596,55.87,24.545,54.575,24.545L54.575,24.545z"/>
		</g>
		<polyline fill-rule="evenodd" clip-rule="evenodd" fill="none" stroke="#288EEA" stroke-miterlimit="10" points="54.846,35.813 
			49.149,42.716 32.193,42.716 		"/>
		<path fill-rule="evenodd" clip-rule="evenodd" fill="none" stroke="#288EEA" stroke-miterlimit="10" d="M35.401,40.738
			c0,1.092-0.886,1.978-1.978,1.978h-2.459c-1.092,0-1.978-0.886-1.978-1.978l0,0c0-1.092,0.886-1.978,1.978-1.978h2.459
			C34.515,38.76,35.401,39.645,35.401,40.738L35.401,40.738z"/>
		
			<path fill-rule="evenodd" clip-rule="evenodd" fill="none" stroke="#288EEA" stroke-width="2" stroke-linecap="round" stroke-miterlimit="10" d="
			M16.401,62.357H2l6.691-11.217h15.031c0.223,4.461,3.9,8.012,8.417,8.012c4.518,0,8.195-3.551,8.419-8.012h13.429L62,62.357
			H47.435"/>
		<g id="XMLID_1_">
			<g>
				<path fill="#D4E8FB" d="M31.054,8.809c6.183,0,11.7,2.817,15.339,7.226l-0.848,0.809c0,0-2.478,3.561-8.609,6.391
					c-1.461,0.665-3.13,1.304-5.009,1.839c-9.835,2.778-20.478,2.987-20.478,2.987l-0.261-0.013
					C11.528,17.352,20.293,8.809,31.054,8.809z"/>
				<path fill="#D4E8FB" d="M50.945,28.687c0,0-10.761-0.248-14.009-5.452c6.13-2.83,8.609-6.391,8.609-6.391l0.848-0.809
					C49.236,19.478,50.945,23.887,50.945,28.687z"/>
			</g>
			<g>
				<path fill="none" stroke="#288EEA" stroke-width="2" stroke-linecap="round" stroke-miterlimit="10" d="M50.945,28.687
					c0,10.983-8.909,19.891-19.891,19.891S11.175,39.67,11.175,28.687c0-0.222,0-0.43,0.013-0.639
					c0.339-10.696,9.104-19.239,19.865-19.239c6.183,0,11.7,2.817,15.339,7.226C49.236,19.478,50.945,23.887,50.945,28.687z"/>
				<path fill="none" stroke="#288EEA" stroke-width="2" stroke-linecap="round" stroke-miterlimit="10" d="M11.449,28.061
					c0,0,10.643-0.209,20.478-2.987c1.878-0.535,3.548-1.174,5.009-1.839c6.13-2.83,8.609-6.391,8.609-6.391"/>
				<path fill="none" stroke="#288EEA" stroke-width="2" stroke-linecap="round" stroke-miterlimit="10" d="M50.945,28.687
					c0,0-10.761-0.248-14.009-5.452"/>
			</g>
		</g>
	</g>
</g>
</svg>
